<svg width="334" height="230" viewBox="0 0 334 230" fill="none" xmlns="http://www.w3.org/2000/svg">
<mask id="path-1-outside-1_43_2" maskUnits="userSpaceOnUse" x="-4" y="-4" width="342" height="238" fill="black">
<rect fill="white" x="-4" y="-4" width="342" height="238"/>
<path d="M27.8584 0.75H71.8662C80.9919 0.75 89.1794 6.54948 96.4287 18.1484C98.1344 21.7305 98.9873 24.9714 98.9873 27.8711V230H65.7256V132.262H33.999V230H0.737305V27.8711C0.737305 18.7454 6.53678 10.5579 18.1357 3.30859C21.7178 1.60286 24.9587 0.75 27.8584 0.75ZM33.999 34.0117V98.4883H65.7256V34.0117H33.999ZM118.177 0.75H151.438V196.738H183.165V0.75H216.427V202.879C216.427 212.005 210.627 220.192 199.028 227.441C195.446 229.147 192.205 230 189.306 230H145.298C136.172 230 127.985 224.201 120.735 212.602C119.03 209.02 118.177 205.779 118.177 202.879V0.75ZM262.737 0.75H306.745C315.871 0.75 324.058 6.54948 331.308 18.1484C333.013 21.7305 333.866 24.9714 333.866 27.8711V66.7617H300.604V34.0117H268.878V98.4883H304.698C314.591 98.4883 323.12 103.947 330.284 114.863C332.672 118.616 333.866 122.368 333.866 126.121V202.879C333.866 212.005 328.067 220.192 316.468 227.441C312.886 229.147 309.645 230 306.745 230H262.737C253.612 230 245.424 224.201 238.175 212.602C236.469 209.02 235.616 205.779 235.616 202.879V163.988H268.878V196.738H300.604V132.262H264.784C254.891 132.262 246.362 126.803 239.198 115.887C236.81 112.134 235.616 108.382 235.616 104.629V27.8711C235.616 18.7454 241.416 10.5579 253.015 3.30859C256.597 1.60286 259.838 0.75 262.737 0.75Z"/>
</mask>
<path d="M27.8584 0.75H71.8662C80.9919 0.75 89.1794 6.54948 96.4287 18.1484C98.1344 21.7305 98.9873 24.9714 98.9873 27.8711V230H65.7256V132.262H33.999V230H0.737305V27.8711C0.737305 18.7454 6.53678 10.5579 18.1357 3.30859C21.7178 1.60286 24.9587 0.75 27.8584 0.75ZM33.999 34.0117V98.4883H65.7256V34.0117H33.999ZM118.177 0.75H151.438V196.738H183.165V0.75H216.427V202.879C216.427 212.005 210.627 220.192 199.028 227.441C195.446 229.147 192.205 230 189.306 230H145.298C136.172 230 127.985 224.201 120.735 212.602C119.03 209.02 118.177 205.779 118.177 202.879V0.75ZM262.737 0.75H306.745C315.871 0.75 324.058 6.54948 331.308 18.1484C333.013 21.7305 333.866 24.9714 333.866 27.8711V66.7617H300.604V34.0117H268.878V98.4883H304.698C314.591 98.4883 323.12 103.947 330.284 114.863C332.672 118.616 333.866 122.368 333.866 126.121V202.879C333.866 212.005 328.067 220.192 316.468 227.441C312.886 229.147 309.645 230 306.745 230H262.737C253.612 230 245.424 224.201 238.175 212.602C236.469 209.02 235.616 205.779 235.616 202.879V163.988H268.878V196.738H300.604V132.262H264.784C254.891 132.262 246.362 126.803 239.198 115.887C236.81 112.134 235.616 108.382 235.616 104.629V27.8711C235.616 18.7454 241.416 10.5579 253.015 3.30859C256.597 1.60286 259.838 0.75 262.737 0.75Z" fill="black"/>
<path d="M96.4287 18.1484L100.04 16.4287L99.9419 16.2223L99.8207 16.0284L96.4287 18.1484ZM98.9873 230V234H102.987V230H98.9873ZM65.7256 230H61.7256V234H65.7256V230ZM65.7256 132.262H69.7256V128.262H65.7256V132.262ZM33.999 132.262V128.262H29.999V132.262H33.999ZM33.999 230V234H37.999V230H33.999ZM0.737305 230H-3.2627V234H0.737305V230ZM18.1357 3.30859L16.416 -0.302849L16.2096 -0.204559L16.0157 -0.0833969L18.1357 3.30859ZM33.999 34.0117V30.0117H29.999V34.0117H33.999ZM33.999 98.4883H29.999V102.488H33.999V98.4883ZM65.7256 98.4883V102.488H69.7256V98.4883H65.7256ZM65.7256 34.0117H69.7256V30.0117H65.7256V34.0117ZM27.8584 4.75H71.8662V-3.25H27.8584V4.75ZM71.8662 4.75C79.0088 4.75 86.1275 9.21375 93.0367 20.2684L99.8207 16.0284C92.2312 3.88522 82.9749 -3.25 71.8662 -3.25V4.75ZM92.8173 19.8682C94.3561 23.0998 94.9873 25.7434 94.9873 27.8711H102.987C102.987 24.1993 101.913 20.3612 100.04 16.4287L92.8173 19.8682ZM94.9873 27.8711V230H102.987V27.8711H94.9873ZM98.9873 226H65.7256V234H98.9873V226ZM69.7256 230V132.262H61.7256V230H69.7256ZM65.7256 128.262H33.999V136.262H65.7256V128.262ZM29.999 132.262V230H37.999V132.262H29.999ZM33.999 226H0.737305V234H33.999V226ZM4.7373 230V27.8711H-3.2627V230H4.7373ZM4.7373 27.8711C4.7373 20.7285 9.20105 13.6098 20.2557 6.70058L16.0157 -0.0833969C3.87252 7.50612 -3.2627 16.7624 -3.2627 27.8711H4.7373ZM19.8555 6.92004C23.0871 5.38118 25.7307 4.75 27.8584 4.75V-3.25C24.1866 -3.25 20.3485 -2.17545 16.416 -0.302849L19.8555 6.92004ZM29.999 34.0117V98.4883H37.999V34.0117H29.999ZM33.999 102.488H65.7256V94.4883H33.999V102.488ZM69.7256 98.4883V34.0117H61.7256V98.4883H69.7256ZM65.7256 30.0117H33.999V38.0117H65.7256V30.0117ZM118.177 0.75V-3.25H114.177V0.75H118.177ZM151.438 0.75H155.438V-3.25H151.438V0.75ZM151.438 196.738H147.438V200.738H151.438V196.738ZM183.165 196.738V200.738H187.165V196.738H183.165ZM183.165 0.75V-3.25H179.165V0.75H183.165ZM216.427 0.75H220.427V-3.25H216.427V0.75ZM199.028 227.441L200.748 231.053L200.954 230.955L201.148 230.833L199.028 227.441ZM120.735 212.602L117.124 214.321L117.222 214.528L117.343 214.722L120.735 212.602ZM118.177 4.75H151.438V-3.25H118.177V4.75ZM147.438 0.75V196.738H155.438V0.75H147.438ZM151.438 200.738H183.165V192.738H151.438V200.738ZM187.165 196.738V0.75H179.165V196.738H187.165ZM183.165 4.75H216.427V-3.25H183.165V4.75ZM212.427 0.75V202.879H220.427V0.75H212.427ZM212.427 202.879C212.427 210.022 207.963 217.14 196.908 224.049L201.148 230.833C213.292 223.244 220.427 213.988 220.427 202.879H212.427ZM197.309 223.83C194.077 225.369 191.433 226 189.306 226V234C192.977 234 196.816 232.925 200.748 231.053L197.309 223.83ZM189.306 226H145.298V234H189.306V226ZM145.298 226C138.155 226 131.037 221.536 124.127 210.482L117.343 214.722C124.933 226.865 134.189 234 145.298 234V226ZM124.347 210.882C122.808 207.65 122.177 205.007 122.177 202.879H114.177C114.177 206.551 115.251 210.389 117.124 214.321L124.347 210.882ZM122.177 202.879V0.75H114.177V202.879H122.177ZM331.308 18.1484L334.919 16.4287L334.821 16.2223L334.7 16.0284L331.308 18.1484ZM333.866 66.7617V70.7617H337.866V66.7617H333.866ZM300.604 66.7617H296.604V70.7617H300.604V66.7617ZM300.604 34.0117H304.604V30.0117H300.604V34.0117ZM268.878 34.0117V30.0117H264.878V34.0117H268.878ZM268.878 98.4883H264.878V102.488H268.878V98.4883ZM330.284 114.863L333.659 112.716L333.644 112.692L333.628 112.669L330.284 114.863ZM316.468 227.441L318.188 231.053L318.394 230.955L318.588 230.833L316.468 227.441ZM238.175 212.602L234.563 214.321L234.662 214.528L234.783 214.722L238.175 212.602ZM235.616 163.988V159.988H231.616V163.988H235.616ZM268.878 163.988H272.878V159.988H268.878V163.988ZM268.878 196.738H264.878V200.738H268.878V196.738ZM300.604 196.738V200.738H304.604V196.738H300.604ZM300.604 132.262H304.604V128.262H300.604V132.262ZM239.198 115.887L235.824 118.034L235.839 118.058L235.854 118.081L239.198 115.887ZM253.015 3.30859L251.295 -0.302849L251.089 -0.204559L250.895 -0.0833969L253.015 3.30859ZM262.737 4.75H306.745V-3.25H262.737V4.75ZM306.745 4.75C313.888 4.75 321.006 9.21375 327.916 20.2684L334.7 16.0284C327.11 3.88522 317.854 -3.25 306.745 -3.25V4.75ZM327.696 19.8682C329.235 23.0998 329.866 25.7434 329.866 27.8711H337.866C337.866 24.1993 336.792 20.3612 334.919 16.4287L327.696 19.8682ZM329.866 27.8711V66.7617H337.866V27.8711H329.866ZM333.866 62.7617H300.604V70.7617H333.866V62.7617ZM304.604 66.7617V34.0117H296.604V66.7617H304.604ZM300.604 30.0117H268.878V38.0117H300.604V30.0117ZM264.878 34.0117V98.4883H272.878V34.0117H264.878ZM268.878 102.488H304.698V94.4883H268.878V102.488ZM304.698 102.488C312.825 102.488 320.252 106.866 326.94 117.058L333.628 112.669C325.989 101.027 316.358 94.4883 304.698 94.4883V102.488ZM326.91 117.011C328.966 120.242 329.866 123.261 329.866 126.121H337.866C337.866 121.476 336.379 116.99 333.659 112.716L326.91 117.011ZM329.866 126.121V202.879H337.866V126.121H329.866ZM329.866 202.879C329.866 210.022 325.402 217.14 314.348 224.049L318.588 230.833C330.731 223.244 337.866 213.988 337.866 202.879H329.866ZM314.748 223.83C311.516 225.369 308.873 226 306.745 226V234C310.417 234 314.255 232.925 318.188 231.053L314.748 223.83ZM306.745 226H262.737V234H306.745V226ZM262.737 226C255.595 226 248.476 221.536 241.567 210.482L234.783 214.722C242.372 226.865 251.629 234 262.737 234V226ZM241.786 210.882C240.247 207.65 239.616 205.007 239.616 202.879H231.616C231.616 206.551 232.691 210.389 234.563 214.321L241.786 210.882ZM239.616 202.879V163.988H231.616V202.879H239.616ZM235.616 167.988H268.878V159.988H235.616V167.988ZM264.878 163.988V196.738H272.878V163.988H264.878ZM268.878 200.738H300.604V192.738H268.878V200.738ZM304.604 196.738V132.262H296.604V196.738H304.604ZM300.604 128.262H264.784V136.262H300.604V128.262ZM264.784 128.262C256.658 128.262 249.231 123.884 242.542 113.692L235.854 118.081C243.494 129.723 253.124 136.262 264.784 136.262V128.262ZM242.573 113.739C240.517 110.508 239.616 107.489 239.616 104.629H231.616C231.616 109.274 233.104 113.76 235.824 118.034L242.573 113.739ZM239.616 104.629V27.8711H231.616V104.629H239.616ZM239.616 27.8711C239.616 20.7285 244.08 13.6098 255.135 6.70058L250.895 -0.0833969C238.751 7.50612 231.616 16.7624 231.616 27.8711H239.616ZM254.734 6.92004C257.966 5.38118 260.61 4.75 262.737 4.75V-3.25C259.066 -3.25 255.227 -2.17545 251.295 -0.302849L254.734 6.92004Z" fill="#FD941F" mask="url(#path-1-outside-1_43_2)"/>
</svg>
